<?xml version="1.0" encoding="UTF-8"?>
<svg id="a" xmlns="http://www.w3.org/2000/svg" viewBox="0 0 24 24">
<style>
    #rocket, #flame {
        animation: shake 0.1s linear infinite;
    }
    @keyframes shake {
        0%, 100% { transform: translateX(0px) translateY(0px); }
        20% { transform: translateX(0.1px) translateY(0.1px); }
        40% { transform: translateX(0.05px) translateY(-0.05px); }
        60% { transform: translateX(0.1px) translateY(0.1px); }
        80% { transform: translateX(-0.15px) translateY(0.05px); }
    }


    #flame {
        transform-origin: 35% 65%;
        animation: pulse 1s ease-in-out infinite;
    }
    @keyframes pulse {
        0%, 100% { transform: scale(1); }
        50% { transform: scale(1.12); }
    }
</style>
<path id="rocket" d="m7.1,11.35c.23-.47.48-.92.73-1.35s.53-.87.83-1.3l-1.4-.28-2.1,2.1,1.95.83Zm12.05-6.88c-1.17.03-2.41.38-3.74,1.03s-2.53,1.52-3.61,2.6c-.7.7-1.33,1.45-1.88,2.25s-.96,1.55-1.23,2.25l2.85,2.83c.7-.27,1.45-.68,2.25-1.23s1.55-1.18,2.25-1.88c1.08-1.08,1.95-2.28,2.6-3.6s.99-2.56,1.03-3.73c0-.07-.01-.13-.04-.2s-.06-.13-.11-.18-.11-.09-.18-.11-.13-.04-.2-.04Zm-5.5,6c-.38-.38-.58-.85-.58-1.41s.19-1.03.58-1.41.86-.58,1.43-.58,1.04.19,1.43.58.58.85.58,1.41-.19,1.03-.58,1.41-.86.58-1.43.58-1.04-.19-1.43-.58Zm-.85,6.55l.83,1.98,2.1-2.1-.28-1.4c-.43.3-.87.57-1.3.81s-.88.48-1.35.71ZM21.58,3.67c.13,1.83-.17,3.62-.9,5.36s-1.89,3.4-3.48,4.99l.5,2.48c.07.33.05.66-.05.98-.1.32-.27.59-.5.83l-3.15,3.15c-.25.25-.55.35-.9.29s-.59-.25-.73-.59l-1.53-3.58-4.28-4.28-3.58-1.53c-.33-.13-.53-.38-.6-.73s.03-.65.28-.9l3.15-3.15c.23-.23.51-.4.84-.5s.65-.12.99-.05l2.48.5c1.58-1.58,3.25-2.74,4.99-3.48s3.53-1.03,5.36-.9c.13.02.27.05.4.11s.25.14.35.24.18.22.24.35.1.27.11.4Z" fill="#13c2a5"/>
<path id="flame" d="m8.2,15.95c-.58-.58-1.3-.87-2.14-.86-.84,0-1.55.3-2.14.89-.8.8-1.27,1.75-1.42,2.84s-.3,2.19-.45,3.29c1.1-.15,2.2-.3,3.29-.45,1.09-.15,2.04-.62,2.84-1.42.58-.58.88-1.3.89-2.14s-.28-1.55-.86-2.14Zm-1.45,2.85c-.28.28-.62.47-1.03.58-.4.1-.81.18-1.22.25.07-.42.15-.83.26-1.23.11-.4.3-.74.59-1.02.2-.2.44-.3.73-.31.28,0,.52.09.72.29s.29.44.28.73c-.02.28-.12.52-.33.72Z" fill="#13c2a5"/>
</svg>