<?xml version="1.0" encoding="UTF-8"?>
<svg id="a" xmlns="http://www.w3.org/2000/svg" viewBox="0 0 1200 1200">
<style>
    #ring {
        animation: rotate 10s cubic-bezier(0.860, -0.005, 0.135, 1.000) infinite;
        transform-origin: center;
        opacity: 0.5;
    }
    #text {
        animation: pulse 10s cubic-bezier(0.860, -0.005, 0.135, 1.000) infinite;
        transform-origin: center;
    }
    @keyframes rotate {
        0%, 30% { transform: rotate(0deg); }
        70%, 100% { transform: rotate(-360deg); }
    }
    @keyframes pulse {
        0%, 35%, 65%, 100% { transform: scale(1.15); }
        50% { transform: scale(0.9); }
    }
</style>
<path id="ring" d="m997.82,876.53c-9.59,4.32-15.71,27.66-29.96,25.88-27.49-6.99-55.52-3.99-83.43,5.45-53.8,31.06,41.04,34.26,62.31,20.83-20.46,21.73-47.44,41.61-75.08,58.16-5.82-5.1-12.03-10.63-22.54-14.81-99.33-45.55-129.22,45.7-15.84,36.72-27.03,13.23-89.22,54.81-98.97,27.24-85.81-82.18-148.92-5.37-40.23,25.72-25.76,1.94-62.8,24.49-79.85-6.03-69.14-76.59-136.43-44.46-35.43,17.76-25.18-2.41-59.67-.42-83.14-12.68-20.25-30.24-58.02-92.32-91.93-83.05-29,21.36,24.01,58.79,27.82,69.61-70.32-23.3-64.98-11.09-69.99-55.09-23.96-108.22-87.28-70.07-31.95,14.6-23.76-14.79-64.1-23.39-53.52-61.12-2.02-73.22-57.28-73.4-31.9,3.71-3.7.59-52.91-43.69-46.73-24.56.09,4.86,56.38,50.11,27.54,36.85-45.92-16.61-76.04,17.74-11.86,27.16,19.77,4.24,35.3-2.58,55.83,1.08,14.25,10.62,32.34,20.23,50.01,31.1-55.49-17.66-106.08,18.85-29.55,30.87,106.03-7.99,39.17-20.34,137.68,12.96-55-1.87-90.9,48.73-12.43,43.41,100.94-20.51,52.71-33.52,140.69-18.89,30.58-1.03-21.1,12.72-27.49,21.48-32.8,19.86-24.1,49.34,19.35,35.61,100.64-40.16,29.58-56.76,142.52-65.19-65.75,31.64-48.09,83.04,19.5,37.76,21.1-14.61,34.65-32.23,47.87-55.05,25.02-12.35,53.89-23.54,80.82-35.78-58.58,58.03-21.93,103.95,27.16,23.91,11.58-16.83,14.1-34.85,21.32-54.12,20.35-10.87,46.56-40.71,61.77-44.51-2.33,14.06-15.01,52.26,10.64,52.86,27.17-16.3,22.33-68.66,24.73-93.39,3.91-8.62,27.64-31.25,14.27-36.44ZM181.96,323.03c9.42-4.32,15.88-26.82,29.54-26.14,25.79,6.52,56.88,4.8,84.48-5.64,53.51-30.06-41.68-33.89-62.89-20.57,5.68-5.49,68.16-64.62,78.54-55.16,104.65,70.79,162.28-33.32,34.58-24.76,28.5-13.27,89.3-55.12,99.58-27.08,90.6,84.8,145.42-.15,39.66-25.04,88.5-23.81,58.44-5.03,108.33,30.05,72.77,50.91,76.38-4.49,14.71-37.74-8.07-4.01-9.15-5.62,8.31-4.32,26.45,5.95,55.21-3.89,71.92,19.16,75.5,126.57,137.93,75.1,56.88,6.03,19.83,6.08,53.4,11.16,69.64,27.22-.82,20.93,18.35,108,50.39,92.43,31.47-28.42-40.12-97.63-2.89-72.35,64.55,33.28,31.95,28.05,44.2,78.83,21.17,65.05,48.92,15.51,28.27-28.03,50.49,35.61,71.29,46.93,9.35-15.01,38.87,18.98,98.69-6.44,24.54-24.12-18.94-2.6-35.38-.98-55.18.27-16.03-10.65-35.45-21.99-52.72-33.18,39.08,17.55,113.41-13.32,31.58-30.21-23.9-3.6-49.95,7.24-75.17,10.22-9.62-4.3-24.09-10.1-36.3-14.13-4.45-1.46-11.8-3.74-20.12-6.23-25.11-6.66,52.3-1.21,49.17-31.64-14.22-42.1-110.26,7.56-132.07,11.84-19.97-4.47-42.58-6.24-64.95-9.11,67.83-21.63,87.89-82.76-.37-48.31-79.77,50.99-28.78,49.35-121.55,57.1,64.87-31.15,45.37-81.49-19.81-37.66-20.87,14.43-35.97,32.78-48.71,55.8-25.6,11.87-53.35,23.24-80.65,35.5,62.2-63.99,15.76-100.88-29.41-20.14-11.84,16.07-11,35.59-21.26,52.15-17.64,7.55-62.19,54.3-59.65,41.65,2.79-14.12,14.31-51.46-10.79-51.6-29.62,18.93-19.21,66.07-26.38,95.7-2.5,6.18-25.92,30.39-12.81,34.22Z" fill="#ffffff"/>
<path id="text" d="m1102.67,612.38c-31.13,21.73-77.9,67.49-57.24-6.64,31.04-15.7,62.52-39.8,63.72-77.74-21.24-68.78-100.96,30.75-102.41,66.77-5.71,10.59-46.82,76.19-46.08,59.63,1.66-32.92,15.16-66.33,11.45-102.52-12.59-52.66-46.11-10.69-63.72,18.95-.26-33.78-20.03-51.24-46.56-16.87-4.49,5.49-5.78,7.76-11.45,15.76-.87.33-3.2,2.4-1.72-2.59,9.6-84.5-39.09-55.16-69.84-6.19-10.94-57.81-50.38-45.79-83.7-7.86-34.75,45-48.84,105.34-99.69,137.07-23.49-.44,20.31-178.29,39.63-127.55,3.56,6.47,5.41,44.65,16.81,8.24,10.38-51.16-42.78-61.01-70.59-23.71-26.15,34.69-30.12,71.4-56.76,107.9-64.58,113.85-46.56-3.44-38.4-53.84,105.75-101.41,106.7-235.63,45.93-192.64-29.23,28.06-44.28,64.36-60.76,102.14-18.92,44.07-28.09,91.09-30.39,139.38-20.41,42.09-105.53,138.81-95.67,29.42,6.35-6.72,20.27-10.27,29.45-19.41,28.68-22.51,75.3-104.24,15.41-108.91-60.58,6.54-64.51,79.65-82.36,117.96-20.86-1.7-30.74-2.98-20.77-25.27,71.86-250.46-135.79-87.44-26.47,29.86,6.2,11.49-41.85,86.54-55.04,56-14.04-35.24,29.88-130.64.78-130.84-39.04,11.2-32.9,80.78-39.07,109.8-43.56,57.06-32.03-28.65-29.19-55.46,3.83-29.95,10.19-52.17,18.91-81.58,6-55.24-50.65,2.86-52.87,29.59-33.41,84.05-.87,201.35,70.86,119.31,28.44,78.4,83.95,11.86,98.55-35.54,6.88-5.45,24.37,5.2,38.77,1.82,19.77,115.14,96.36,58.35,129.96-11.99,10.87,91.29,69.93,55.15,94.7-6.07,18.46-41.42,7.7-2.75,15.26,17.77,27.98,84.67,90.9-11.36,110.16-49.31,5.97,76.15,52.57,88.36,90.34,17.07,18.79-35.18,20.69-72.12,56.16-97.23-1.92,21.26-44.14,157.08,5.04,125.37,10.79-26.17,73.94-168.51,52.63-77.18-3.75,19.88-20.02,102.09,17.94,71.48,12.41-35.91,24.75-76.52,51.83-107.9,7.55,17.27-10.18,57.84-4.37,85.3,15.19,79.15,55.16,3.55,71.78-29.61,12.37,107.1,128.83-21,99.05-12.16Zm-48.98-33.3c7.43-14.58,13.98-33.67,31.39-43.05.08,16.12-15.69,38-32.2,45.95.37-1.36.5-2.17.8-2.9Zm-557.79-21.06c14.34-43.53,26.29-92.45,55.78-131.39,6.49,40.88-32.36,117.13-55.78,131.39Zm-142.07,93.4c51.68-141.73,71.92-42.3-.72,3.28.43-1.99.49-2.67.72-3.28Zm-79.99-11.24c-.3,1.09-.9,2.09-1.68,3.87-5.54-33.6-5.45-73.66,6.42-107.45,18.54,29.33,3.34,70.3-4.74,103.57Zm476.7-19.52c-20.53,57.58-64.79,91.81-42.81-.49,12.42,9.97,28.98,8.68,43.62-2.79-.4,1.67-.52,2.51-.81,3.28Zm8.82-36.78c.37,4.86-23.54,30.19-29.55,18.69.88-30.33,28.48-90.33,29.55-18.69Z" fill="#ffffff"/>
</svg>